# xmcd
#
# Track frame offsets: 
#        150
#        22302
#        42592
#        67022
#        96654
#        126520
#        151078
#        170275
#        191659
#        217983
#        237533
#        255305
#
# Disc length: 3770 seconds
#
# Revision: 0
# Processed by: cddbd v1.5.2PL0 Copyright (c) Steve Scherf et al.
# Submitted via: ExactAudioCopy v0.99pb4
#
DISCID=b20eb80c
DTITLE=Jay Jesse Johnson - I've Got An Ax To Grind
DYEAR=2007
DGENRE=Blues
TTITLE0=Cradle To The Grave
TTITLE1=I Ain't Easy
TTITLE2=Big Bad Rhythm
TTITLE3=Sittin By The Riverside
TTITLE4=Demons
TTITLE5=Matter Of Time
TTITLE6=What Goes Around
TTITLE7=I've Got An Ax To Grind
TTITLE8=Spell Of Winter
TTITLE9=Restless Soul
TTITLE10=Snake In The Grass
TTITLE11=Cold World
EXTD=
EXTT0=
EXTT1=
EXTT2=
EXTT3=
EXTT4=
EXTT5=
EXTT6=
EXTT7=
EXTT8=
EXTT9=
EXTT10=
EXTT11=
PLAYORDER=
